<svg xmlns="http://www.w3.org/2000/svg" version="1.1" xmlns:xlink="http://www.w3.org/1999/xlink" xmlns:svgjs="http://svgjs.dev/svgjs" viewBox="0 0 800 800" opacity="0.23" width="800" height="800"><g stroke-width="4" stroke="#6bf4b4" fill="none"><circle r="4.921052631578947" cx="0" cy="0" fill="#6bf4b4" stroke="none"></circle><circle r="4.921052631578947" cx="133.33333333333334" cy="0" fill="#6bf4b4" stroke="none"></circle><circle r="4.921052631578947" cx="266.6666666666667" cy="0" fill="#6bf4b4" stroke="none"></circle><circle r="4.921052631578947" cx="400" cy="0" fill="#6bf4b4" stroke="none"></circle><circle r="4.921052631578947" cx="533.3333333333334" cy="0" fill="#6bf4b4" stroke="none"></circle><circle r="4.921052631578947" cx="666.6666666666667" cy="0" fill="#6bf4b4" stroke="none"></circle><circle r="4.921052631578947" cx="800.0000000000001" cy="0" fill="#6bf4b4" stroke="none"></circle><circle r="4.921052631578947" cx="0" cy="133.33333333333334" fill="#6bf4b4" stroke="none"></circle><circle r="4.921052631578947" cx="133.33333333333334" cy="133.33333333333334" fill="#6bf4b4" stroke="none"></circle><circle r="4.921052631578947" cx="266.6666666666667" cy="133.33333333333334" fill="#6bf4b4" stroke="none"></circle><circle r="4.921052631578947" cx="400" cy="133.33333333333334" fill="#6bf4b4" stroke="none"></circle><circle r="4.921052631578947" cx="533.3333333333334" cy="133.33333333333334" fill="#6bf4b4" stroke="none"></circle><circle r="4.921052631578947" cx="666.6666666666667" cy="133.33333333333334" fill="#6bf4b4" stroke="none"></circle><circle r="4.921052631578947" cx="800.0000000000001" cy="133.33333333333334" fill="#6bf4b4" stroke="none"></circle><circle r="4.921052631578947" cx="0" cy="266.6666666666667" fill="#6bf4b4" stroke="none"></circle><circle r="4.921052631578947" cx="133.33333333333334" cy="266.6666666666667" fill="#6bf4b4" stroke="none"></circle><circle r="4.921052631578947" cx="266.6666666666667" cy="266.6666666666667" fill="#6bf4b4" stroke="none"></circle><circle r="4.921052631578947" cx="400" cy="266.6666666666667" fill="#6bf4b4" stroke="none"></circle><circle r="4.921052631578947" cx="533.3333333333334" cy="266.6666666666667" fill="#6bf4b4" stroke="none"></circle><circle r="4.921052631578947" cx="666.6666666666667" cy="266.6666666666667" fill="#6bf4b4" stroke="none"></circle><circle r="4.921052631578947" cx="800.0000000000001" cy="266.6666666666667" fill="#6bf4b4" stroke="none"></circle><circle r="4.921052631578947" cx="0" cy="400" fill="#6bf4b4" stroke="none"></circle><circle r="4.921052631578947" cx="133.33333333333334" cy="400" fill="#6bf4b4" stroke="none"></circle><circle r="4.921052631578947" cx="266.6666666666667" cy="400" fill="#6bf4b4" stroke="none"></circle><circle r="4.921052631578947" cx="400" cy="400" fill="#6bf4b4" stroke="none"></circle><circle r="4.921052631578947" cx="533.3333333333334" cy="400" fill="#6bf4b4" stroke="none"></circle><circle r="4.921052631578947" cx="666.6666666666667" cy="400" fill="#6bf4b4" stroke="none"></circle><circle r="4.921052631578947" cx="800.0000000000001" cy="400" fill="#6bf4b4" stroke="none"></circle><circle r="4.921052631578947" cx="0" cy="533.3333333333334" fill="#6bf4b4" stroke="none"></circle><circle r="4.921052631578947" cx="133.33333333333334" cy="533.3333333333334" fill="#6bf4b4" stroke="none"></circle><circle r="4.921052631578947" cx="266.6666666666667" cy="533.3333333333334" fill="#6bf4b4" stroke="none"></circle><circle r="4.921052631578947" cx="400" cy="533.3333333333334" fill="#6bf4b4" stroke="none"></circle><circle r="4.921052631578947" cx="533.3333333333334" cy="533.3333333333334" fill="#6bf4b4" stroke="none"></circle><circle r="4.921052631578947" cx="666.6666666666667" cy="533.3333333333334" fill="#6bf4b4" stroke="none"></circle><circle r="4.921052631578947" cx="800.0000000000001" cy="533.3333333333334" fill="#6bf4b4" stroke="none"></circle><circle r="4.921052631578947" cx="0" cy="666.6666666666667" fill="#6bf4b4" stroke="none"></circle><circle r="4.921052631578947" cx="133.33333333333334" cy="666.6666666666667" fill="#6bf4b4" stroke="none"></circle><circle r="4.921052631578947" cx="266.6666666666667" cy="666.6666666666667" fill="#6bf4b4" stroke="none"></circle><circle r="4.921052631578947" cx="400" cy="666.6666666666667" fill="#6bf4b4" stroke="none"></circle><circle r="4.921052631578947" cx="533.3333333333334" cy="666.6666666666667" fill="#6bf4b4" stroke="none"></circle><circle r="4.921052631578947" cx="666.6666666666667" cy="666.6666666666667" fill="#6bf4b4" stroke="none"></circle><circle r="4.921052631578947" cx="800.0000000000001" cy="666.6666666666667" fill="#6bf4b4" stroke="none"></circle><circle r="4.921052631578947" cx="0" cy="800.0000000000001" fill="#6bf4b4" stroke="none"></circle><circle r="4.921052631578947" cx="133.33333333333334" cy="800.0000000000001" fill="#6bf4b4" stroke="none"></circle><circle r="4.921052631578947" cx="266.6666666666667" cy="800.0000000000001" fill="#6bf4b4" stroke="none"></circle><circle r="4.921052631578947" cx="400" cy="800.0000000000001" fill="#6bf4b4" stroke="none"></circle><circle r="4.921052631578947" cx="533.3333333333334" cy="800.0000000000001" fill="#6bf4b4" stroke="none"></circle><circle r="4.921052631578947" cx="666.6666666666667" cy="800.0000000000001" fill="#6bf4b4" stroke="none"></circle><circle r="4.921052631578947" cx="800.0000000000001" cy="800.0000000000001" fill="#6bf4b4" stroke="none"></circle></g></svg>