<svg xmlns="http://www.w3.org/2000/svg" version="1.1" xmlns:xlink="http://www.w3.org/1999/xlink" xmlns:svgjs="http://svgjs.dev/svgjs" viewBox="0 0 800 800" width="800" height="800"><g stroke-width="3.5" stroke="#092207" fill="none"><circle r="4.289473684210526" cx="0" cy="0" fill="#092207" stroke="none"></circle><circle r="4.289473684210526" cx="100" cy="0" fill="#092207" stroke="none"></circle><circle r="4.289473684210526" cx="200" cy="0" fill="#092207" stroke="none"></circle><circle r="4.289473684210526" cx="300" cy="0" fill="#092207" stroke="none"></circle><circle r="4.289473684210526" cx="400" cy="0" fill="#092207" stroke="none"></circle><circle r="4.289473684210526" cx="500" cy="0" fill="#092207" stroke="none"></circle><circle r="4.289473684210526" cx="600" cy="0" fill="#092207" stroke="none"></circle><circle r="4.289473684210526" cx="700" cy="0" fill="#092207" stroke="none"></circle><circle r="4.289473684210526" cx="800" cy="0" fill="#092207" stroke="none"></circle><circle r="4.289473684210526" cx="0" cy="100" fill="#092207" stroke="none"></circle><circle r="4.289473684210526" cx="100" cy="100" fill="#092207" stroke="none"></circle><circle r="4.289473684210526" cx="200" cy="100" fill="#092207" stroke="none"></circle><circle r="4.289473684210526" cx="300" cy="100" fill="#092207" stroke="none"></circle><circle r="4.289473684210526" cx="400" cy="100" fill="#092207" stroke="none"></circle><circle r="4.289473684210526" cx="500" cy="100" fill="#092207" stroke="none"></circle><circle r="4.289473684210526" cx="600" cy="100" fill="#092207" stroke="none"></circle><circle r="4.289473684210526" cx="700" cy="100" fill="#092207" stroke="none"></circle><circle r="4.289473684210526" cx="800" cy="100" fill="#092207" stroke="none"></circle><circle r="4.289473684210526" cx="0" cy="200" fill="#092207" stroke="none"></circle><circle r="4.289473684210526" cx="100" cy="200" fill="#092207" stroke="none"></circle><circle r="4.289473684210526" cx="200" cy="200" fill="#092207" stroke="none"></circle><circle r="4.289473684210526" cx="300" cy="200" fill="#092207" stroke="none"></circle><circle r="4.289473684210526" cx="400" cy="200" fill="#092207" stroke="none"></circle><circle r="4.289473684210526" cx="500" cy="200" fill="#092207" stroke="none"></circle><circle r="4.289473684210526" cx="600" cy="200" fill="#092207" stroke="none"></circle><circle r="4.289473684210526" cx="700" cy="200" fill="#092207" stroke="none"></circle><circle r="4.289473684210526" cx="800" cy="200" fill="#092207" stroke="none"></circle><circle r="4.289473684210526" cx="0" cy="300" fill="#092207" stroke="none"></circle><circle r="4.289473684210526" cx="100" cy="300" fill="#092207" stroke="none"></circle><circle r="4.289473684210526" cx="200" cy="300" fill="#092207" stroke="none"></circle><circle r="4.289473684210526" cx="300" cy="300" fill="#092207" stroke="none"></circle><circle r="4.289473684210526" cx="400" cy="300" fill="#092207" stroke="none"></circle><circle r="4.289473684210526" cx="500" cy="300" fill="#092207" stroke="none"></circle><circle r="4.289473684210526" cx="600" cy="300" fill="#092207" stroke="none"></circle><circle r="4.289473684210526" cx="700" cy="300" fill="#092207" stroke="none"></circle><circle r="4.289473684210526" cx="800" cy="300" fill="#092207" stroke="none"></circle><circle r="4.289473684210526" cx="0" cy="400" fill="#092207" stroke="none"></circle><circle r="4.289473684210526" cx="100" cy="400" fill="#092207" stroke="none"></circle><circle r="4.289473684210526" cx="200" cy="400" fill="#092207" stroke="none"></circle><circle r="4.289473684210526" cx="300" cy="400" fill="#092207" stroke="none"></circle><circle r="4.289473684210526" cx="400" cy="400" fill="#092207" stroke="none"></circle><circle r="4.289473684210526" cx="500" cy="400" fill="#092207" stroke="none"></circle><circle r="4.289473684210526" cx="600" cy="400" fill="#092207" stroke="none"></circle><circle r="4.289473684210526" cx="700" cy="400" fill="#092207" stroke="none"></circle><circle r="4.289473684210526" cx="800" cy="400" fill="#092207" stroke="none"></circle><circle r="4.289473684210526" cx="0" cy="500" fill="#092207" stroke="none"></circle><circle r="4.289473684210526" cx="100" cy="500" fill="#092207" stroke="none"></circle><circle r="4.289473684210526" cx="200" cy="500" fill="#092207" stroke="none"></circle><circle r="4.289473684210526" cx="300" cy="500" fill="#092207" stroke="none"></circle><circle r="4.289473684210526" cx="400" cy="500" fill="#092207" stroke="none"></circle><circle r="4.289473684210526" cx="500" cy="500" fill="#092207" stroke="none"></circle><circle r="4.289473684210526" cx="600" cy="500" fill="#092207" stroke="none"></circle><circle r="4.289473684210526" cx="700" cy="500" fill="#092207" stroke="none"></circle><circle r="4.289473684210526" cx="800" cy="500" fill="#092207" stroke="none"></circle><circle r="4.289473684210526" cx="0" cy="600" fill="#092207" stroke="none"></circle><circle r="4.289473684210526" cx="100" cy="600" fill="#092207" stroke="none"></circle><circle r="4.289473684210526" cx="200" cy="600" fill="#092207" stroke="none"></circle><circle r="4.289473684210526" cx="300" cy="600" fill="#092207" stroke="none"></circle><circle r="4.289473684210526" cx="400" cy="600" fill="#092207" stroke="none"></circle><circle r="4.289473684210526" cx="500" cy="600" fill="#092207" stroke="none"></circle><circle r="4.289473684210526" cx="600" cy="600" fill="#092207" stroke="none"></circle><circle r="4.289473684210526" cx="700" cy="600" fill="#092207" stroke="none"></circle><circle r="4.289473684210526" cx="800" cy="600" fill="#092207" stroke="none"></circle><circle r="4.289473684210526" cx="0" cy="700" fill="#092207" stroke="none"></circle><circle r="4.289473684210526" cx="100" cy="700" fill="#092207" stroke="none"></circle><circle r="4.289473684210526" cx="200" cy="700" fill="#092207" stroke="none"></circle><circle r="4.289473684210526" cx="300" cy="700" fill="#092207" stroke="none"></circle><circle r="4.289473684210526" cx="400" cy="700" fill="#092207" stroke="none"></circle><circle r="4.289473684210526" cx="500" cy="700" fill="#092207" stroke="none"></circle><circle r="4.289473684210526" cx="600" cy="700" fill="#092207" stroke="none"></circle><circle r="4.289473684210526" cx="700" cy="700" fill="#092207" stroke="none"></circle><circle r="4.289473684210526" cx="800" cy="700" fill="#092207" stroke="none"></circle><circle r="4.289473684210526" cx="0" cy="800" fill="#092207" stroke="none"></circle><circle r="4.289473684210526" cx="100" cy="800" fill="#092207" stroke="none"></circle><circle r="4.289473684210526" cx="200" cy="800" fill="#092207" stroke="none"></circle><circle r="4.289473684210526" cx="300" cy="800" fill="#092207" stroke="none"></circle><circle r="4.289473684210526" cx="400" cy="800" fill="#092207" stroke="none"></circle><circle r="4.289473684210526" cx="500" cy="800" fill="#092207" stroke="none"></circle><circle r="4.289473684210526" cx="600" cy="800" fill="#092207" stroke="none"></circle><circle r="4.289473684210526" cx="700" cy="800" fill="#092207" stroke="none"></circle><circle r="4.289473684210526" cx="800" cy="800" fill="#092207" stroke="none"></circle></g></svg>